<svg width="566" height="346" viewBox="0 0 566 346" fill="none" xmlns="http://www.w3.org/2000/svg">
<g filter="url(#filter0_d_27_67)">
<rect x="50" y="25" width="466" height="246" rx="50" fill="white"/>
<rect x="50.25" y="25.25" width="465.5" height="245.5" rx="49.75" stroke="#CAD6F1" stroke-width="0.5"/>
</g>
<path d="M115.313 214.758L117.688 221.461L120.049 214.758H122.55V224H120.639V221.474L120.83 217.113L118.335 224H117.027L114.539 217.119L114.729 221.474V224H112.825V214.758H115.313ZM131.805 219.588C131.805 220.498 131.644 221.296 131.322 221.981C131.001 222.667 130.539 223.196 129.938 223.568C129.342 223.941 128.656 224.127 127.882 224.127C127.116 224.127 126.432 223.943 125.832 223.575C125.231 223.207 124.765 222.682 124.435 222C124.105 221.315 123.938 220.528 123.934 219.639V219.182C123.934 218.272 124.097 217.472 124.422 216.783C124.752 216.089 125.216 215.558 125.812 215.189C126.413 214.817 127.099 214.631 127.869 214.631C128.639 214.631 129.323 214.817 129.919 215.189C130.52 215.558 130.984 216.089 131.31 216.783C131.64 217.472 131.805 218.27 131.805 219.176V219.588ZM129.875 219.169C129.875 218.2 129.701 217.464 129.354 216.96C129.007 216.457 128.512 216.205 127.869 216.205C127.23 216.205 126.737 216.455 126.39 216.954C126.043 217.449 125.868 218.177 125.863 219.138V219.588C125.863 220.532 126.037 221.264 126.384 221.785C126.731 222.305 127.23 222.565 127.882 222.565C128.521 222.565 129.012 222.316 129.354 221.816C129.697 221.313 129.871 220.581 129.875 219.62V219.169ZM140.704 224H138.8L135.093 217.919V224H133.188V214.758H135.093L138.806 220.852V214.758H140.704V224Z" fill="#6A6D9E"/>
<rect x="111" y="66" width="14" height="134" rx="7" fill="#554DDE"/>
<rect x="129" y="117" width="14" height="83" rx="7" fill="#F44E77"/>
<path d="M174.782 216.3H171.951V224H170.047V216.3H167.254V214.758H174.782V216.3ZM182.869 214.758V220.845C182.869 221.857 182.552 222.656 181.917 223.245C181.286 223.833 180.423 224.127 179.327 224.127C178.248 224.127 177.391 223.841 176.756 223.27C176.122 222.699 175.798 221.914 175.785 220.915V214.758H177.689V220.858C177.689 221.463 177.833 221.905 178.121 222.185C178.413 222.46 178.815 222.597 179.327 222.597C180.398 222.597 180.942 222.034 180.958 220.909V214.758H182.869ZM189.991 219.995H186.335V222.47H190.626V224H184.431V214.758H190.613V216.3H186.335V218.503H189.991V219.995Z" fill="#6A6D9E"/>
<rect x="163" y="102" width="14" height="98" rx="7" fill="#554DDE"/>
<rect x="181" y="160" width="14" height="40" rx="7" fill="#F44E77"/>
<path d="M225.023 221.334L226.268 214.758H228.166L226.115 224H224.198L222.694 217.817L221.189 224H219.272L217.222 214.758H219.12L220.371 221.321L221.894 214.758H223.506L225.023 221.334ZM234.761 219.995H231.104V222.47H235.396V224H229.2V214.758H235.383V216.3H231.104V218.503H234.761V219.995ZM236.513 224V214.758H239.356C240.169 214.758 240.895 214.942 241.534 215.31C242.177 215.674 242.678 216.194 243.038 216.872C243.398 217.544 243.578 218.31 243.578 219.169V219.595C243.578 220.454 243.4 221.218 243.044 221.886C242.693 222.555 242.196 223.073 241.553 223.441C240.91 223.81 240.184 223.996 239.375 224H236.513ZM238.417 216.3V222.47H239.337C240.082 222.47 240.651 222.227 241.045 221.74C241.438 221.254 241.639 220.557 241.648 219.652V219.163C241.648 218.224 241.453 217.513 241.064 217.03C240.675 216.544 240.105 216.3 239.356 216.3H238.417Z" fill="#6A6D9E"/>
<rect x="215" y="80" width="14" height="120" rx="7" fill="#554DDE"/>
<rect x="233" y="126" width="14" height="74" rx="7" fill="#F44E77"/>
<path d="M277.782 216.3H274.951V224H273.047V216.3H270.254V214.758H277.782V216.3ZM286.396 224H284.492V220.039H280.778V224H278.874V214.758H280.778V218.503H284.492V214.758H286.396V224ZM295.061 214.758V220.845C295.061 221.857 294.743 222.656 294.108 223.245C293.478 223.833 292.615 224.127 291.519 224.127C290.439 224.127 289.583 223.841 288.948 223.27C288.313 222.699 287.989 221.914 287.977 220.915V214.758H289.881V220.858C289.881 221.463 290.025 221.905 290.312 222.185C290.604 222.46 291.007 222.597 291.519 222.597C292.589 222.597 293.133 222.034 293.15 220.909V214.758H295.061Z" fill="#6A6D9E"/>
<rect x="267" y="102" width="14" height="98" rx="7" fill="#554DDE"/>
<rect x="285" y="143" width="14" height="57" rx="7" fill="#F44E77"/>
<path d="M331.386 220.223H327.729V224H325.825V214.758H331.843V216.3H327.729V218.687H331.386V220.223ZM336.369 220.617H334.852V224H332.947V214.758H336.381C337.473 214.758 338.315 215.001 338.908 215.488C339.5 215.974 339.796 216.662 339.796 217.551C339.796 218.181 339.659 218.708 339.384 219.131C339.113 219.55 338.7 219.885 338.146 220.134L340.146 223.911V224H338.102L336.369 220.617ZM334.852 219.074H336.388C336.866 219.074 337.236 218.954 337.499 218.712C337.761 218.467 337.892 218.131 337.892 217.703C337.892 217.267 337.767 216.924 337.518 216.675C337.272 216.425 336.893 216.3 336.381 216.3H334.852V219.074ZM343.275 224H341.371V214.758H343.275V224Z" fill="#6A6D9E"/>
<rect x="319" y="126" width="14" height="74" rx="7" fill="#554DDE"/>
<rect x="337" y="167" width="14" height="33" rx="7" fill="#F44E77"/>
<path d="M379.618 221.575C379.618 221.215 379.491 220.94 379.237 220.75C378.983 220.555 378.526 220.352 377.866 220.141C377.206 219.925 376.683 219.713 376.298 219.506C375.248 218.939 374.724 218.175 374.724 217.214C374.724 216.715 374.863 216.271 375.143 215.881C375.426 215.488 375.83 215.181 376.355 214.961C376.884 214.741 377.476 214.631 378.132 214.631C378.792 214.631 379.381 214.751 379.897 214.993C380.413 215.23 380.813 215.566 381.097 216.002C381.384 216.438 381.528 216.933 381.528 217.487H379.624C379.624 217.064 379.491 216.736 379.224 216.503C378.958 216.266 378.583 216.148 378.101 216.148C377.635 216.148 377.273 216.247 377.015 216.446C376.757 216.641 376.628 216.899 376.628 217.221C376.628 217.521 376.778 217.773 377.079 217.976C377.383 218.179 377.83 218.37 378.418 218.547C379.501 218.873 380.291 219.277 380.786 219.76C381.281 220.242 381.528 220.843 381.528 221.562C381.528 222.362 381.226 222.991 380.621 223.448C380.015 223.901 379.201 224.127 378.177 224.127C377.466 224.127 376.818 223.998 376.234 223.74C375.65 223.477 375.204 223.12 374.895 222.667C374.59 222.214 374.438 221.689 374.438 221.093H376.349C376.349 222.113 376.958 222.623 378.177 222.623C378.63 222.623 378.983 222.532 379.237 222.35C379.491 222.163 379.618 221.905 379.618 221.575ZM388.041 222.096H384.702L384.067 224H382.042L385.483 214.758H387.248L390.707 224H388.682L388.041 222.096ZM385.216 220.553H387.527L386.365 217.094L385.216 220.553ZM397.766 216.3H394.935V224H393.03V216.3H390.237V214.758H397.766V216.3Z" fill="#6A6D9E"/>
<rect x="371" y="102" width="14" height="98" rx="7" fill="#554DDE"/>
<rect x="389" y="148" width="14" height="52" rx="7" fill="#F44E77"/>
<path d="M431.618 221.575C431.618 221.215 431.491 220.94 431.237 220.75C430.983 220.555 430.526 220.352 429.866 220.141C429.206 219.925 428.683 219.713 428.298 219.506C427.248 218.939 426.724 218.175 426.724 217.214C426.724 216.715 426.863 216.271 427.143 215.881C427.426 215.488 427.83 215.181 428.355 214.961C428.884 214.741 429.476 214.631 430.132 214.631C430.792 214.631 431.381 214.751 431.897 214.993C432.413 215.23 432.813 215.566 433.097 216.002C433.384 216.438 433.528 216.933 433.528 217.487H431.624C431.624 217.064 431.491 216.736 431.224 216.503C430.958 216.266 430.583 216.148 430.101 216.148C429.635 216.148 429.273 216.247 429.015 216.446C428.757 216.641 428.628 216.899 428.628 217.221C428.628 217.521 428.778 217.773 429.079 217.976C429.383 218.179 429.83 218.37 430.418 218.547C431.501 218.873 432.291 219.277 432.786 219.76C433.281 220.242 433.528 220.843 433.528 221.562C433.528 222.362 433.226 222.991 432.621 223.448C432.015 223.901 431.201 224.127 430.177 224.127C429.466 224.127 428.818 223.998 428.234 223.74C427.65 223.477 427.204 223.12 426.895 222.667C426.59 222.214 426.438 221.689 426.438 221.093H428.349C428.349 222.113 428.958 222.623 430.177 222.623C430.63 222.623 430.983 222.532 431.237 222.35C431.491 222.163 431.618 221.905 431.618 221.575ZM441.818 214.758V220.845C441.818 221.857 441.501 222.656 440.866 223.245C440.236 223.833 439.372 224.127 438.276 224.127C437.197 224.127 436.34 223.841 435.706 223.27C435.071 222.699 434.747 221.914 434.734 220.915V214.758H436.639V220.858C436.639 221.463 436.783 221.905 437.07 222.185C437.362 222.46 437.764 222.597 438.276 222.597C439.347 222.597 439.891 222.034 439.908 220.909V214.758H441.818ZM450.896 224H448.991L445.284 217.919V224H443.38V214.758H445.284L448.998 220.852V214.758H450.896V224Z" fill="#6A6D9E"/>
<rect x="423" y="75" width="14" height="125" rx="7" fill="#554DDE"/>
<rect x="441" y="113" width="14" height="87" rx="7" fill="#F44E77"/>
<defs>
<filter id="filter0_d_27_67" x="0" y="0" width="566" height="346" filterUnits="userSpaceOnUse" color-interpolation-filters="sRGB">
<feFlood flood-opacity="0" result="BackgroundImageFix"/>
<feColorMatrix in="SourceAlpha" type="matrix" values="0 0 0 0 0 0 0 0 0 0 0 0 0 0 0 0 0 0 127 0" result="hardAlpha"/>
<feOffset dy="25"/>
<feGaussianBlur stdDeviation="25"/>
<feColorMatrix type="matrix" values="0 0 0 0 0.0862745 0 0 0 0 0.0980392 0 0 0 0 0.309804 0 0 0 0.05 0"/>
<feBlend mode="normal" in2="BackgroundImageFix" result="effect1_dropShadow_27_67"/>
<feBlend mode="normal" in="SourceGraphic" in2="effect1_dropShadow_27_67" result="shape"/>
</filter>
</defs>
</svg>
