<svg width="720" height="522" viewBox="0 0 720 522" fill="none" xmlns="http://www.w3.org/2000/svg">
<g filter="url(#filter0_dd_49_3)">
<path d="M520 58H102C88.7452 58 78 68.7452 78 82V302C78 315.255 88.7452 326 102 326H520C533.255 326 544 315.255 544 302V82C544 68.7452 533.255 58 520 58Z" fill="#16194F"/>
<mask id="mask0_49_3" style="mask-type:alpha" maskUnits="userSpaceOnUse" x="78" y="58" width="466" height="268">
<path d="M520 58H102C88.7452 58 78 68.7452 78 82V302C78 315.255 88.7452 326 102 326H520C533.255 326 544 315.255 544 302V82C544 68.7452 533.255 58 520 58Z" fill="#16194F"/>
</mask>
<g mask="url(#mask0_49_3)">
<path d="M369.207 49.7968C391.841 27.2422 428.453 27.2423 451.087 49.7968L465.328 63.9873C474.586 73.2128 486.688 79.041 499.673 80.5271L519.646 82.813C551.392 86.4463 574.22 115.071 570.698 146.83L568.482 166.811C567.041 179.801 570.03 192.897 576.964 203.975L587.63 221.016C604.583 248.102 596.436 283.796 569.41 300.844L552.407 311.569C541.353 318.542 532.977 329.044 528.639 341.373L521.966 360.337C511.36 390.478 478.373 406.364 448.194 395.863L429.207 389.257C416.863 384.962 403.431 384.962 391.087 389.257L372.1 395.863C341.921 406.364 308.934 390.478 298.328 360.337L291.655 341.373C287.317 329.044 278.942 318.542 267.887 311.569L250.884 300.844C223.858 283.796 215.711 248.102 232.664 221.016L243.33 203.975C250.264 192.897 253.253 179.801 251.812 166.811L249.597 146.83C246.075 115.071 268.902 86.4463 300.648 82.813L320.621 80.5271C333.606 79.041 345.709 73.2128 354.967 63.9873L369.207 49.7968Z" fill="#645FAE"/>
<path d="M324.56 -100.203C347.194 -122.758 383.806 -122.758 406.44 -100.203L420.681 -86.0127C429.938 -76.7872 442.041 -70.959 455.026 -69.4729L474.999 -67.187C506.745 -63.5537 529.572 -34.9287 526.051 -3.17031L523.835 16.8109C522.394 29.8009 525.383 42.8967 532.317 53.9753L542.983 71.0163C559.936 98.1016 551.789 133.796 524.763 150.844L507.76 161.569C496.705 168.542 488.33 179.044 483.992 191.373L477.319 210.337C466.713 240.478 433.726 256.364 403.547 245.863L384.56 239.257C372.216 234.962 358.784 234.962 346.44 239.257L327.453 245.863C297.274 256.364 264.287 240.478 253.681 210.337L247.008 191.373C242.67 179.044 234.295 168.542 223.24 161.569L206.237 150.844C179.211 133.796 171.064 98.1015 188.017 71.0163L198.683 53.9754C205.617 42.8967 208.606 29.8009 207.165 16.8108L204.949 -3.17031C201.428 -34.9287 224.255 -63.5537 256.001 -67.187L275.974 -69.4729C288.959 -70.959 301.062 -76.7872 310.319 -86.0127L324.56 -100.203Z" fill="#0E1148"/>
<path d="M455 252.75C520.17 252.75 573 199.92 573 134.75C573 69.5804 520.17 16.75 455 16.75C389.83 16.75 337 69.5804 337 134.75C337 199.92 389.83 252.75 455 252.75Z" fill="#FF7A00" fill-opacity="0.25"/>
<path d="M518 222C547.271 222 571 198.271 571 169C571 139.729 547.271 116 518 116C488.729 116 465 139.729 465 169C465 198.271 488.729 222 518 222Z" fill="#FFE924" fill-opacity="0.24"/>
<path d="M470 260C499.271 260 523 236.271 523 207C523 177.729 499.271 154 470 154C440.729 154 417 177.729 417 207C417 236.271 440.729 260 470 260Z" fill="#F44E77" fill-opacity="0.33"/>
<path d="M422 151C451.271 151 475 127.271 475 98C475 68.7289 451.271 45 422 45C392.729 45 369 68.7289 369 98C369 127.271 392.729 151 422 151Z" fill="#A9979B" fill-opacity="0.33"/>
<path d="M523 151C552.271 151 576 127.271 576 98C576 68.7289 552.271 45 523 45C493.729 45 470 68.7289 470 98C470 127.271 493.729 151 523 151Z" fill="#5E5F60" fill-opacity="0.24"/>
<path d="M482 151C511.271 151 535 127.271 535 98C535 68.7289 511.271 45 482 45C452.729 45 429 68.7289 429 98C429 127.271 452.729 151 482 151Z" fill="#29FF24" fill-opacity="0.24"/>
<path d="M578 214C607.271 214 631 190.271 631 161C631 131.729 607.271 108 578 108C548.729 108 525 131.729 525 161C525 190.271 548.729 214 578 214Z" fill="#FFE712" fill-opacity="0.46"/>
<path d="M436 210C465.271 210 489 186.271 489 157C489 127.729 465.271 104 436 104C406.729 104 383 127.729 383 157C383 186.271 406.729 210 436 210Z" fill="#243AFF" fill-opacity="0.24"/>
<mask id="mask1_49_3" style="mask-type:alpha" maskUnits="userSpaceOnUse" x="-64" y="-206" width="467" height="458">
<path d="M118.397 -184.076C146.649 -212.229 192.351 -212.229 220.603 -184.076L238.379 -166.362C249.935 -154.847 265.042 -147.572 281.25 -145.717L306.181 -142.863C345.808 -138.328 374.302 -102.597 369.906 -62.955L367.14 -38.0137C365.342 -21.7989 369.073 -5.45206 377.729 8.37674L391.042 29.648C412.203 63.457 402.034 108.013 368.299 129.292L347.075 142.68C333.276 151.384 322.822 164.493 317.407 179.883L309.077 203.554C295.838 241.178 254.662 261.007 216.992 247.9L193.292 239.653C177.884 234.292 161.116 234.292 145.708 239.653L122.008 247.9C84.3377 261.007 43.162 241.178 29.9227 203.554L21.5931 179.883C16.1779 164.493 5.72373 151.384 -8.07463 142.68L-29.2991 129.292C-63.0337 108.013 -73.2032 63.457 -52.0422 29.648L-38.7286 8.37672C-30.0732 -5.45207 -26.3421 -21.7989 -28.1403 -38.0137L-30.9062 -62.955C-35.3024 -102.597 -6.80793 -138.328 32.8186 -142.863L57.7501 -145.717C73.9585 -147.572 89.0652 -154.847 100.621 -166.362L118.397 -184.076Z" fill="#CAC7FF"/>
</mask>
<g mask="url(#mask1_49_3)">
<path d="M222.107 -1.99383C260.946 -40.6968 323.773 -40.6969 362.612 -1.99386L387.048 22.3565C402.934 38.1871 423.701 48.1882 445.983 50.7383L480.256 54.6609C534.731 60.8955 573.903 110.015 567.859 164.512L564.057 198.799C561.585 221.089 566.714 243.561 578.613 262.572L596.915 291.814C626.005 338.291 612.025 399.542 565.65 428.795L536.473 447.2C517.504 459.165 503.133 477.186 495.688 498.342L484.237 530.883C466.037 582.605 409.433 609.865 357.647 591.846L325.066 580.509C303.885 573.139 280.835 573.139 259.653 580.509L227.072 591.846C175.286 609.865 118.682 582.605 100.482 530.883L89.0309 498.342C81.5866 477.186 67.2151 459.165 48.2464 447.2L19.069 428.795C-27.3061 399.542 -41.2863 338.291 -12.1961 291.814L6.1062 262.572C18.0049 243.561 23.134 221.089 20.662 198.799L16.8597 164.512C10.8162 110.015 49.9878 60.8955 104.463 54.6609L138.736 50.7383C161.018 48.1882 181.785 38.1871 197.671 22.3566L222.107 -1.99383Z" fill="#F44E77"/>
<path d="M138.861 0.0837402C169.975 -30.9222 220.307 -30.9222 251.422 0.0837154L270.998 19.5914C283.725 32.2737 300.363 40.2858 318.213 42.3288L345.67 45.4713C389.312 50.466 420.693 89.817 415.851 133.475L412.805 160.944C410.825 178.801 414.934 196.804 424.466 212.034L439.129 235.46C462.434 272.695 451.234 321.764 414.081 345.2L390.707 359.944C375.51 369.53 363.997 383.967 358.033 400.916L348.86 426.985C334.279 468.421 288.932 490.259 247.445 475.824L221.343 466.742C204.374 460.838 185.908 460.838 168.939 466.742L142.838 475.824C101.351 490.259 56.0037 468.421 41.4231 426.985L32.2496 400.916C26.2858 383.967 14.7724 369.53 -0.423859 359.944L-23.7987 345.2C-60.951 321.764 -72.1508 272.695 -48.8459 235.46L-34.1835 212.034C-24.6511 196.804 -20.5421 178.801 -22.5224 160.944L-25.5686 133.475C-30.4102 89.8169 0.97121 50.466 44.6125 45.4713L72.0698 42.3288C89.9203 40.2858 106.557 32.2737 119.284 19.5915L138.861 0.0837402Z" fill="#16194F" fill-opacity="0.33"/>
<path d="M148.861 -8.91626C179.975 -39.9222 230.307 -39.9222 261.422 -8.91629L280.998 10.5914C293.725 23.2737 310.363 31.2858 328.213 33.3288L355.67 36.4713C399.312 41.466 430.693 80.817 425.851 124.475L422.805 151.944C420.825 169.801 424.934 187.804 434.466 203.034L449.129 226.46C472.434 263.695 461.234 312.764 424.081 336.2L400.707 350.944C385.51 360.53 373.997 374.967 368.033 391.916L358.86 417.985C344.279 459.421 298.932 481.259 257.445 466.824L231.343 457.742C214.374 451.838 195.908 451.838 178.939 457.742L152.838 466.824C111.351 481.259 66.0037 459.421 51.4231 417.985L42.2496 391.916C36.2858 374.967 24.7724 360.53 9.57615 350.944L-13.7987 336.2C-50.951 312.764 -62.1508 263.695 -38.8459 226.46L-24.1835 203.034C-14.6511 187.804 -10.5421 169.801 -12.5224 151.944L-15.5686 124.475C-20.4102 80.8169 10.9712 41.466 54.6125 36.4713L82.0698 33.3288C99.9203 31.2858 116.557 23.2737 129.284 10.5915L148.861 -8.91626Z" fill="#16194F"/>
<path d="M131.861 -5.91626C162.975 -36.9222 213.307 -36.9222 244.422 -5.91629L263.998 13.5914C276.725 26.2737 293.363 34.2858 311.213 36.3288L338.67 39.4713C382.312 44.466 413.693 83.817 408.851 127.475L405.805 154.944C403.825 172.801 407.934 190.804 417.466 206.034L432.129 229.46C455.434 266.695 444.234 315.764 407.081 339.2L383.707 353.944C368.51 363.53 356.997 377.967 351.033 394.916L341.86 420.985C327.279 462.421 281.932 484.259 240.445 469.824L214.343 460.742C197.374 454.838 178.908 454.838 161.939 460.742L135.838 469.824C94.3511 484.259 49.0037 462.421 34.4231 420.985L25.2496 394.916C19.2858 377.967 7.77245 363.53 -7.42385 353.944L-30.7987 339.2C-67.951 315.764 -79.1508 266.695 -55.8459 229.46L-41.1835 206.034C-31.6511 190.804 -27.5421 172.801 -29.5224 154.944L-32.5686 127.475C-37.4102 83.8169 -6.02879 44.466 37.6125 39.4713L65.0698 36.3288C82.9203 34.2858 99.5575 26.2737 112.284 13.5915L131.861 -5.91626Z" fill="#202358"/>
<path d="M110.861 -1.91626C141.975 -32.9222 192.307 -32.9222 223.422 -1.91629L242.998 17.5914C255.725 30.2737 272.363 38.2858 290.213 40.3288L317.67 43.4713C361.312 48.466 392.693 87.817 387.851 131.475L384.805 158.944C382.825 176.801 386.934 194.804 396.466 210.034L411.129 233.46C434.434 270.695 423.234 319.764 386.081 343.2L362.707 357.944C347.51 367.53 335.997 381.967 330.033 398.916L320.86 424.985C306.279 466.421 260.932 488.259 219.445 473.824L193.343 464.742C176.374 458.838 157.908 458.838 140.939 464.742L114.838 473.824C73.3509 488.259 28.0035 466.421 13.4229 424.985L4.24943 398.916C-1.71443 381.967 -13.2278 367.53 -28.4241 357.944L-51.7989 343.2C-88.9512 319.764 -100.151 270.695 -76.8461 233.46L-62.1837 210.034C-52.6513 194.804 -48.5423 176.801 -50.5226 158.944L-53.5688 131.475C-58.4104 87.8169 -27.029 48.466 16.6123 43.4713L44.0696 40.3288C61.9201 38.2858 78.5573 30.2737 91.2842 17.5915L110.861 -1.91626Z" fill="#292C62"/>
<path d="M89.8606 -1.91626C120.975 -32.9222 171.307 -32.9222 202.422 -1.91629L221.998 17.5914C234.725 30.2737 251.363 38.2858 269.213 40.3288L296.67 43.4713C340.312 48.466 371.693 87.817 366.851 131.475L363.805 158.944C361.825 176.801 365.934 194.804 375.466 210.034L390.129 233.46C413.434 270.695 402.234 319.764 365.081 343.2L341.707 357.944C326.51 367.53 314.997 381.967 309.033 398.916L299.86 424.985C285.279 466.421 239.932 488.259 198.445 473.824L172.343 464.742C155.374 458.838 136.908 458.838 119.939 464.742L93.8377 473.824C52.3511 488.259 7.00377 466.421 -7.57681 424.985L-16.7504 398.916C-22.7142 381.967 -34.2276 367.53 -49.4239 357.944L-72.7987 343.2C-109.951 319.764 -121.151 270.695 -97.8459 233.46L-83.1835 210.034C-73.6511 194.804 -69.5421 176.801 -71.5224 158.944L-74.5686 131.475C-79.4102 87.8169 -48.0288 48.466 -4.38751 43.4713L23.0698 40.3288C40.9203 38.2858 57.5575 30.2737 70.2844 17.5915L89.8606 -1.91626Z" fill="#393C6F"/>
<path d="M65.8606 -0.91626C96.9756 -31.9222 147.307 -31.9222 178.422 -0.916283L197.998 18.5914C210.725 31.2737 227.363 39.2858 245.213 41.3288L272.67 44.4713C316.312 49.466 347.693 88.817 342.851 132.475L339.805 159.944C337.825 177.801 341.934 195.804 351.466 211.034L366.129 234.46C389.434 271.695 378.234 320.764 341.081 344.2L317.707 358.944C302.51 368.53 290.997 382.967 285.033 399.916L275.86 425.985C261.279 467.421 215.932 489.259 174.445 474.824L148.343 465.742C131.374 459.838 112.908 459.838 95.9394 465.742L69.8377 474.824C28.3511 489.259 -16.9963 467.421 -31.5769 425.985L-40.7504 399.916C-46.7142 382.967 -58.2276 368.53 -73.4239 358.944L-96.7987 344.2C-133.951 320.764 -145.151 271.695 -121.846 234.46L-107.184 211.034C-97.6511 195.804 -93.5421 177.801 -95.5224 159.944L-98.5686 132.475C-103.41 88.8169 -72.0288 49.466 -28.3875 44.4713L-0.930176 41.3288C16.9203 39.2858 33.5575 31.2737 46.2844 18.5915L65.8606 -0.91626Z" fill="#444778"/>
<path fill-rule="evenodd" clip-rule="evenodd" d="M119.862 63.2305C119.629 62.1805 119.119 61.2356 118.396 60.4586C118.056 60.1016 117.674 59.7657 117.249 59.5137C109.346 54.495 99.934 52.8361 90.734 54.8099C81.535 56.8048 73.674 62.1805 68.596 69.9921C63.5181 77.8036 61.8185 87.127 63.8156 96.1985C65.8127 105.27 71.273 113.04 79.176 118.058C80.621 118.961 82.385 119.234 84.02 118.793C85.444 118.415 86.676 117.512 87.484 116.273C89.268 113.522 88.461 109.827 85.678 108.063C80.472 104.745 76.882 99.642 75.565 93.6576C74.247 87.673 75.373 81.5414 78.709 76.3967C82.066 71.252 87.229 67.7032 93.284 66.4013C99.339 65.0993 105.543 66.2123 110.748 69.5091C112.086 70.349 113.701 70.643 115.273 70.307C116.845 69.9501 118.184 69.0471 119.055 67.7032C119.905 66.3803 120.202 64.7844 119.862 63.2305ZM72.824 94.2246C73.844 98.802 76.032 102.918 79.176 106.257C80.642 107.811 82.321 109.197 84.169 110.373C85.656 111.318 86.081 113.271 85.125 114.74C84.7 115.412 84.042 115.874 83.277 116.084C82.406 116.315 81.471 116.168 80.706 115.685C73.419 111.066 68.405 103.926 66.5563 95.5685C64.7079 87.211 66.2801 78.6645 70.954 71.462C75.607 64.2804 82.852 59.3247 91.308 57.4978C99.764 55.6709 108.432 57.2038 115.698 61.8235C116.421 62.2855 116.909 62.9995 117.1 63.8184C117.292 64.6374 117.143 65.4773 116.675 66.1913C116.208 66.9052 115.486 67.3882 114.657 67.5772C113.829 67.7662 112.979 67.6192 112.256 67.1572C106.414 63.4404 99.466 62.2015 92.689 63.6714C85.911 65.1203 80.111 69.1101 76.351 74.8848C72.59 80.6594 71.337 87.526 72.824 94.2246Z" fill="#29FF24" fill-opacity="0.71"/>
<path fill-rule="evenodd" clip-rule="evenodd" d="M109.459 201.631C110.361 202.217 111.387 202.535 112.446 202.584C112.939 202.601 113.447 202.573 113.927 202.455C123.084 200.504 130.965 195.099 136.151 187.248C141.322 179.382 143.171 170.04 141.327 160.908C139.482 151.775 134.168 143.929 126.39 138.85C118.613 133.772 109.274 132.048 100.117 133.999C98.4539 134.366 97.0029 135.406 96.1439 136.866C95.3929 138.132 95.1449 139.64 95.4359 141.09C96.0879 144.303 99.2519 146.377 102.474 145.687C108.514 144.411 114.65 145.54 119.781 148.891C124.912 152.241 128.401 157.407 129.622 163.416C130.827 169.44 129.626 175.588 126.215 180.758C122.803 185.927 117.595 189.476 111.57 190.767C110.026 191.104 108.668 192.025 107.78 193.366C106.908 194.721 106.584 196.303 106.903 197.873C107.223 199.412 108.128 200.76 109.459 201.631ZM121.341 146.567C117.407 144.013 112.963 142.607 108.38 142.424C106.246 142.341 104.077 142.527 101.934 142.982C100.21 143.349 98.5399 142.252 98.1929 140.533C98.0259 139.756 98.1729 138.965 98.5719 138.279C99.0319 137.504 99.8019 136.955 100.687 136.764C109.124 134.96 117.703 136.546 124.874 141.219C132.046 145.892 136.908 153.094 138.614 161.51C140.32 169.895 138.618 178.506 133.86 185.731C129.102 192.956 121.839 197.931 113.417 199.72C112.578 199.896 111.729 199.729 111.019 199.278C110.309 198.827 109.827 198.123 109.661 197.286C109.495 196.449 109.672 195.598 110.132 194.883C110.591 194.168 111.301 193.678 112.14 193.502C118.914 192.065 124.741 188.085 128.551 182.29C132.375 176.51 133.723 169.6 132.364 162.844C131.006 156.088 127.093 150.308 121.341 146.567Z" fill="#FFE924"/>
<path fill-rule="evenodd" clip-rule="evenodd" d="M219.783 150.996C219.657 150.223 219.325 149.515 218.832 148.921C218.6 148.647 218.336 148.388 218.037 148.187C212.498 144.215 205.726 142.623 198.959 143.68C192.191 144.752 186.257 148.336 182.246 153.805C178.234 159.275 176.616 165.98 177.695 172.656C178.774 179.331 182.424 185.202 187.962 189.174C188.975 189.889 190.246 190.16 191.453 189.907C192.502 189.691 193.435 189.085 194.073 188.218C195.483 186.292 195.048 183.573 193.098 182.177C189.45 179.551 187.05 175.695 186.339 171.291C185.627 166.888 186.697 162.478 189.333 158.875C191.984 155.274 195.882 152.907 200.336 152.209C204.791 151.511 209.254 152.575 212.902 155.185C213.84 155.851 215.001 156.13 216.158 155.951C217.315 155.756 218.325 155.155 219.014 154.213C219.685 153.287 219.967 152.139 219.783 150.996ZM184.323 171.591C184.877 174.96 186.299 178.041 188.447 180.597C189.448 181.787 190.611 182.863 191.907 183.793C192.949 184.541 193.177 185.978 192.422 187.007C192.086 187.478 191.588 187.786 191.023 187.908C190.381 188.04 189.708 187.895 189.171 187.512C184.065 183.856 180.713 178.461 179.713 172.311C178.713 166.16 180.206 160.013 183.899 154.97C187.576 149.942 193.045 146.637 199.266 145.657C205.486 144.676 211.724 146.146 216.815 149.802C217.321 150.168 217.647 150.706 217.752 151.31C217.858 151.913 217.715 152.517 217.346 153.017C216.977 153.516 216.432 153.838 215.822 153.941C215.212 154.045 214.6 153.903 214.094 153.537C210 150.596 205.002 149.411 200.016 150.201C195.031 150.976 190.651 153.637 187.681 157.68C184.71 161.722 183.518 166.662 184.323 171.591Z" fill="#24D8FF"/>
<path d="M216.723 81.9787C217.51 82.6808 218 83.6808 218 84.8084C218.042 92.2763 215.191 99.34 209.936 104.659C204.681 109.978 197.681 112.935 190.191 112.999C174.745 113.106 162.107 100.638 162 85.1914C161.979 83.0851 163.681 81.3617 165.787 81.3404C167.894 81.3191 169.617 83.0212 169.638 85.1276C169.681 90.5743 171.83 95.659 175.702 99.489C179.574 103.319 184.702 105.404 190.149 105.361C195.596 105.319 200.681 103.17 204.51 99.297C208.34 95.425 210.425 90.2977 210.383 84.851C210.361 82.7446 212.063 81.0213 214.17 81C215.149 81 216.042 81.383 216.723 81.9787Z" fill="white"/>
<path d="M311.628 67.9312C312.265 69.4437 312.285 71.1763 311.532 72.761C306.602 83.2841 297.877 91.3066 286.939 95.2713C276 99.2359 264.188 98.7155 253.619 93.802C231.84 83.6342 222.408 57.6699 232.576 35.8905C233.954 32.9164 237.497 31.6314 240.471 33.0083C243.446 34.3858 244.731 37.9289 243.353 40.9032C239.775 48.5864 239.398 57.1678 242.282 65.1368C245.165 73.1059 250.978 79.4616 258.662 83.0398C266.345 86.6195 274.927 86.9962 282.895 84.1111C290.864 81.2281 297.22 75.4152 300.799 67.7326C302.175 64.7577 305.718 63.4728 308.694 64.8504C310.069 65.5044 311.069 66.6392 311.628 67.9312Z" fill="#393C6F"/>
<path d="M279.034 191.859C277.981 191.909 276.931 191.538 276.141 190.733C270.882 185.431 267.972 178.391 268 170.914C268.027 163.437 270.954 156.424 276.256 151.135C287.21 140.243 304.963 140.296 315.855 151.249C317.345 152.738 317.336 155.161 315.847 156.651C314.358 158.141 311.936 158.132 310.446 156.643C306.602 152.784 301.507 150.658 296.061 150.635C290.615 150.613 285.494 152.714 281.635 156.558C277.776 160.402 275.65 165.497 275.627 170.943C275.604 176.389 277.706 181.51 281.55 185.369C283.04 186.858 283.031 189.28 281.542 190.77C280.844 191.456 279.937 191.808 279.034 191.859Z" fill="#F44E77"/>
</g>
<path d="M98.7046 254C104.023 254 107.244 250.71 107.244 245.256C107.244 239.818 104.023 236.545 98.7558 236.545H92.5171V254H98.7046ZM96.2075 250.838V239.707H98.5598C101.832 239.707 103.562 241.378 103.562 245.256C103.562 249.151 101.832 250.838 98.5512 250.838H96.2075ZM109.91 254H113.54V240.909H109.91V254ZM111.734 239.222C112.816 239.222 113.702 238.395 113.702 237.381C113.702 236.375 112.816 235.548 111.734 235.548C110.66 235.548 109.773 236.375 109.773 237.381C109.773 238.395 110.66 239.222 111.734 239.222ZM121.273 254.213C123.386 254.213 124.486 252.994 124.989 251.903H125.142V254H128.722V236.545H125.099V243.108H124.989C124.503 242.043 123.455 240.739 121.264 240.739C118.392 240.739 115.963 242.972 115.963 247.472C115.963 251.852 118.29 254.213 121.273 254.213ZM122.423 251.324C120.642 251.324 119.67 249.739 119.67 247.455C119.67 245.188 120.625 243.628 122.423 243.628C124.188 243.628 125.176 245.119 125.176 247.455C125.176 249.79 124.17 251.324 122.423 251.324ZM137.673 254.256C140.911 254.256 143.093 252.679 143.604 250.25L140.246 250.028C139.88 251.026 138.942 251.545 137.732 251.545C135.917 251.545 134.766 250.344 134.766 248.392V248.384H143.681V247.386C143.681 242.938 140.988 240.739 137.528 240.739C133.675 240.739 131.178 243.474 131.178 247.514C131.178 251.665 133.641 254.256 137.673 254.256ZM134.766 246.134C134.843 244.642 135.977 243.449 137.587 243.449C139.164 243.449 140.255 244.574 140.263 246.134H134.766ZM146.05 254H149.681V246.142C149.681 244.693 150.602 243.73 151.812 243.73C153.005 243.73 153.806 244.548 153.806 245.835V254H157.326V246.006C157.326 244.651 158.102 243.73 159.423 243.73C160.582 243.73 161.451 244.455 161.451 245.912V254H165.073V245.196C165.073 242.358 163.386 240.739 160.948 240.739C159.031 240.739 157.539 241.719 157.002 243.219H156.866C156.448 241.702 155.11 240.739 153.312 240.739C151.548 240.739 150.21 241.676 149.664 243.219H149.511V240.909H146.05V254ZM173.564 254H177.254V249.04L179.07 246.824L183.851 254H188.266L181.712 244.361L188.189 236.545H183.766L177.484 244.241H177.254V236.545H173.564V254ZM197.617 248.426C197.626 250.182 196.424 251.102 195.12 251.102C193.748 251.102 192.862 250.139 192.853 248.597V240.909H189.222V249.244C189.231 252.304 191.021 254.17 193.654 254.17C195.623 254.17 197.038 253.156 197.626 251.622H197.762V254H201.248V240.909H197.617V248.426ZM192.657 239.119C193.646 239.119 194.43 238.327 194.43 237.381C194.43 236.418 193.646 235.651 192.657 235.651C191.677 235.651 190.867 236.418 190.867 237.381C190.867 238.327 191.677 239.119 192.657 239.119ZM197.873 239.119C198.862 239.119 199.646 238.327 199.646 237.381C199.646 236.418 198.862 235.651 197.873 235.651C196.893 235.651 196.083 236.418 196.083 237.381C196.083 238.327 196.893 239.119 197.873 239.119ZM210.834 254.222C213.868 253.94 215.76 251.98 215.913 249.202H212.487C212.274 250.599 211.354 251.384 210.109 251.384C208.413 251.384 207.314 249.96 207.314 247.455C207.314 244.983 208.422 243.568 210.109 243.568C211.439 243.568 212.291 244.446 212.487 245.75H215.913C215.76 242.724 213.467 240.739 210.05 240.739C206.078 240.739 203.624 243.491 203.624 247.506C203.624 251.179 205.678 253.812 209.155 254.205L208.831 255.662C210.016 255.807 210.561 256.139 210.536 256.838C210.51 257.562 209.649 257.903 208.217 257.903L208.251 259.523C211.107 259.523 212.76 258.44 212.751 256.744C212.743 255.551 211.916 254.852 210.749 254.673L210.834 254.222ZM226.633 248.426C226.641 250.182 225.44 251.102 224.136 251.102C222.763 251.102 221.877 250.139 221.869 248.597V240.909H218.238V249.244C218.246 252.304 220.036 254.17 222.67 254.17C224.638 254.17 226.053 253.156 226.641 251.622H226.778V254H230.263V240.909H226.633V248.426ZM221.673 239.119C222.661 239.119 223.445 238.327 223.445 237.381C223.445 236.418 222.661 235.651 221.673 235.651C220.692 235.651 219.883 236.418 219.883 237.381C219.883 238.327 220.692 239.119 221.673 239.119ZM226.888 239.119C227.877 239.119 228.661 238.327 228.661 237.381C228.661 236.418 227.877 235.651 226.888 235.651C225.908 235.651 225.099 236.418 225.099 237.381C225.099 238.327 225.908 239.119 226.888 239.119ZM233.168 254H236.798V249.841L237.778 248.724L241.349 254H245.602L240.497 246.577L245.355 240.909H241.188L236.994 245.878H236.798V236.545H233.168V254ZM247.136 254H250.767V249.841L251.747 248.724L255.318 254H259.571L254.466 246.577L259.324 240.909H255.156L250.963 245.878H250.767V236.545H247.136V254ZM264.838 254.247C266.773 254.247 268.026 253.403 268.665 252.185H268.767V254H272.21V245.17C272.21 242.051 269.568 240.739 266.653 240.739C263.517 240.739 261.455 242.239 260.952 244.625L264.31 244.898C264.557 244.028 265.332 243.389 266.636 243.389C267.872 243.389 268.58 244.011 268.58 245.085V245.136C268.58 245.98 267.685 246.091 265.409 246.312C262.818 246.551 260.491 247.42 260.491 250.344C260.491 252.935 262.341 254.247 264.838 254.247ZM265.878 251.741C264.761 251.741 263.96 251.222 263.96 250.224C263.96 249.202 264.804 248.699 266.082 248.52C266.875 248.409 268.17 248.222 268.605 247.932V249.321C268.605 250.693 267.472 251.741 265.878 251.741ZM275.027 254H278.658V246.594C278.658 244.983 279.834 243.875 281.436 243.875C281.939 243.875 282.629 243.96 282.97 244.071V240.849C282.646 240.773 282.195 240.722 281.828 240.722C280.362 240.722 279.161 241.574 278.683 243.193H278.547V240.909H275.027V254ZM288.205 254.247C290.14 254.247 291.393 253.403 292.032 252.185H292.134V254H295.577V245.17C295.577 242.051 292.935 240.739 290.021 240.739C286.884 240.739 284.822 242.239 284.319 244.625L287.677 244.898C287.924 244.028 288.7 243.389 290.004 243.389C291.239 243.389 291.947 244.011 291.947 245.085V245.136C291.947 245.98 291.052 246.091 288.776 246.312C286.185 246.551 283.859 247.42 283.859 250.344C283.859 252.935 285.708 254.247 288.205 254.247ZM289.245 251.741C288.129 251.741 287.327 251.222 287.327 250.224C287.327 249.202 288.171 248.699 289.45 248.52C290.242 248.409 291.538 248.222 291.972 247.932V249.321C291.972 250.693 290.839 251.741 289.245 251.741ZM302.127 254.247C304.062 254.247 305.315 253.403 305.954 252.185H306.056V254H309.499V245.17C309.499 242.051 306.857 240.739 303.942 240.739C300.806 240.739 298.744 242.239 298.241 244.625L301.599 244.898C301.846 244.028 302.621 243.389 303.925 243.389C305.161 243.389 305.869 244.011 305.869 245.085V245.136C305.869 245.98 304.974 246.091 302.698 246.312C300.107 246.551 297.781 247.42 297.781 250.344C297.781 252.935 299.63 254.247 302.127 254.247ZM303.167 251.741C302.05 251.741 301.249 251.222 301.249 250.224C301.249 249.202 302.093 248.699 303.371 248.52C304.164 248.409 305.46 248.222 305.894 247.932V249.321C305.894 250.693 304.761 251.741 303.167 251.741ZM323.208 244.642C322.884 242.23 320.941 240.739 317.634 240.739C314.285 240.739 312.077 242.29 312.086 244.812C312.077 246.773 313.313 248.043 315.87 248.554L318.137 249.006C319.279 249.236 319.799 249.653 319.816 250.31C319.799 251.085 318.955 251.639 317.685 251.639C316.39 251.639 315.529 251.085 315.308 250.02L311.737 250.207C312.077 252.713 314.208 254.256 317.677 254.256C321.069 254.256 323.498 252.526 323.506 249.943C323.498 248.051 322.262 246.918 319.722 246.398L317.353 245.92C316.134 245.656 315.683 245.239 315.691 244.608C315.683 243.824 316.569 243.312 317.694 243.312C318.955 243.312 319.705 244.003 319.884 244.847L323.208 244.642ZM329.423 236.545H325.793V254H329.423V236.545ZM336.065 254.247C337.999 254.247 339.252 253.403 339.891 252.185H339.994V254H343.437V245.17C343.437 242.051 340.795 240.739 337.88 240.739C334.744 240.739 332.681 242.239 332.178 244.625L335.536 244.898C335.783 244.028 336.559 243.389 337.863 243.389C339.099 243.389 339.806 244.011 339.806 245.085V245.136C339.806 245.98 338.911 246.091 336.636 246.312C334.045 246.551 331.718 247.42 331.718 250.344C331.718 252.935 333.567 254.247 336.065 254.247ZM337.104 251.741C335.988 251.741 335.187 251.222 335.187 250.224C335.187 249.202 336.031 248.699 337.309 248.52C338.102 248.409 339.397 248.222 339.832 247.932V249.321C339.832 250.693 338.698 251.741 337.104 251.741ZM349.884 246.432C349.893 244.744 350.898 243.756 352.364 243.756C353.822 243.756 354.7 244.71 354.691 246.312V254H358.322V245.665C358.322 242.614 356.532 240.739 353.805 240.739C351.862 240.739 350.455 241.693 349.867 243.219H349.714V240.909H346.254V254H349.884V246.432Z" fill="white"/>
<path d="M97.4205 285.199C100.24 285.199 102.335 283.43 102.335 281.051C102.335 279.205 101.241 277.862 99.4091 277.557V277.443C100.879 276.996 101.795 275.788 101.795 274.148C101.795 272.088 100.169 270.256 97.4773 270.256C94.9631 270.256 92.875 271.804 92.7898 274.091H94.4943C94.5582 272.642 95.9361 271.79 97.4489 271.79C99.054 271.79 100.091 272.763 100.091 274.233C100.091 275.767 98.8906 276.761 97.1648 276.761H96V278.324H97.1648C99.3736 278.324 100.602 279.446 100.602 281.051C100.602 282.592 99.2599 283.636 97.392 283.636C95.7088 283.636 94.3736 282.77 94.267 281.364H92.4773C92.5838 283.651 94.6009 285.199 97.4205 285.199ZM110.155 285.199C112.974 285.199 115.07 283.43 115.07 281.051C115.07 279.205 113.976 277.862 112.143 277.557V277.443C113.614 276.996 114.53 275.788 114.53 274.148C114.53 272.088 112.903 270.256 110.212 270.256C107.697 270.256 105.609 271.804 105.524 274.091H107.229C107.293 272.642 108.67 271.79 110.183 271.79C111.788 271.79 112.825 272.763 112.825 274.233C112.825 275.767 111.625 276.761 109.899 276.761H108.734V278.324H109.899C112.108 278.324 113.337 279.446 113.337 281.051C113.337 282.592 111.994 283.636 110.126 283.636C108.443 283.636 107.108 282.77 107.001 281.364H105.212C105.318 283.651 107.335 285.199 110.155 285.199ZM117.974 285H127.151V283.438H120.389V283.324L123.656 279.83C126.156 277.152 126.895 275.902 126.895 274.29C126.895 272.045 125.077 270.256 122.52 270.256C119.97 270.256 118.031 271.989 118.031 274.545H119.707C119.707 272.891 120.78 271.79 122.463 271.79C124.04 271.79 125.247 272.756 125.247 274.29C125.247 275.632 124.459 276.626 122.776 278.466L117.974 283.722V285ZM134.999 285.199C137.818 285.199 139.913 283.43 139.913 281.051C139.913 279.205 138.82 277.862 136.987 277.557V277.443C138.457 276.996 139.374 275.788 139.374 274.148C139.374 272.088 137.747 270.256 135.055 270.256C132.541 270.256 130.453 271.804 130.368 274.091H132.072C132.136 272.642 133.514 271.79 135.027 271.79C136.632 271.79 137.669 272.763 137.669 274.233C137.669 275.767 136.469 276.761 134.743 276.761H133.578V278.324H134.743C136.952 278.324 138.18 279.446 138.18 281.051C138.18 282.592 136.838 283.636 134.97 283.636C133.287 283.636 131.952 282.77 131.845 281.364H130.055C130.162 283.651 132.179 285.199 134.999 285.199ZM151.256 278.636H152.619L152.506 275.511L155.148 277.188L155.83 275.994L153.045 274.545L155.83 273.097L155.148 271.903L152.506 273.58L152.619 270.455H151.256L151.369 273.58L148.727 271.903L148.045 273.097L150.83 274.545L148.045 275.994L148.727 277.188L151.369 275.511L151.256 278.636ZM161.256 278.636H162.619L162.506 275.511L165.148 277.188L165.83 275.994L163.045 274.545L165.83 273.097L165.148 271.903L162.506 273.58L162.619 270.455H161.256L161.369 273.58L158.727 271.903L158.045 273.097L160.83 274.545L158.045 275.994L158.727 277.188L161.369 275.511L161.256 278.636ZM171.256 278.636H172.619L172.506 275.511L175.148 277.188L175.83 275.994L173.045 274.545L175.83 273.097L175.148 271.903L172.506 273.58L172.619 270.455H171.256L171.369 273.58L168.727 271.903L168.045 273.097L170.83 274.545L168.045 275.994L168.727 277.188L171.369 275.511L171.256 278.636ZM181.256 278.636H182.619L182.506 275.511L185.148 277.188L185.83 275.994L183.045 274.545L185.83 273.097L185.148 271.903L182.506 273.58L182.619 270.455H181.256L181.369 273.58L178.727 271.903L178.045 273.097L180.83 274.545L178.045 275.994L178.727 277.188L181.369 275.511L181.256 278.636ZM196.881 278.636H198.244L198.131 275.511L200.773 277.188L201.455 275.994L198.67 274.545L201.455 273.097L200.773 271.903L198.131 273.58L198.244 270.455H196.881L196.994 273.58L194.352 271.903L193.67 273.097L196.455 274.545L193.67 275.994L194.352 277.188L196.994 275.511L196.881 278.636ZM206.881 278.636H208.244L208.131 275.511L210.773 277.188L211.455 275.994L208.67 274.545L211.455 273.097L210.773 271.903L208.131 273.58L208.244 270.455H206.881L206.994 273.58L204.352 271.903L203.67 273.097L206.455 274.545L203.67 275.994L204.352 277.188L206.994 275.511L206.881 278.636ZM216.881 278.636H218.244L218.131 275.511L220.773 277.188L221.455 275.994L218.67 274.545L221.455 273.097L220.773 271.903L218.131 273.58L218.244 270.455H216.881L216.994 273.58L214.352 271.903L213.67 273.097L216.455 274.545L213.67 275.994L214.352 277.188L216.994 275.511L216.881 278.636ZM226.881 278.636H228.244L228.131 275.511L230.773 277.188L231.455 275.994L228.67 274.545L231.455 273.097L230.773 271.903L228.131 273.58L228.244 270.455H226.881L226.994 273.58L224.352 271.903L223.67 273.097L226.455 274.545L223.67 275.994L224.352 277.188L226.994 275.511L226.881 278.636ZM239.693 285H248.869V283.438H242.108V283.324L245.375 279.83C247.875 277.152 248.614 275.902 248.614 274.29C248.614 272.045 246.795 270.256 244.239 270.256C241.689 270.256 239.75 271.989 239.75 274.545H241.426C241.426 272.891 242.499 271.79 244.182 271.79C245.759 271.79 246.966 272.756 246.966 274.29C246.966 275.632 246.178 276.626 244.494 278.466L239.693 283.722V285ZM251.149 282.017H257.996V285H259.672V282.017H261.661V280.455H259.672V270.455H257.541L251.149 280.568V282.017ZM257.996 280.455H253.053V280.341L257.882 272.699H257.996V280.455ZM268.868 285.199C271.637 285.199 273.669 283.153 273.669 280.369C273.669 277.55 271.708 275.483 269.038 275.483C268.058 275.483 267.106 275.831 266.51 276.307H266.424L266.936 272.017H273.015V270.455H265.458L264.578 277.614L266.225 277.812C266.829 277.379 267.859 277.067 268.754 277.074C270.608 277.088 271.964 278.494 271.964 280.398C271.964 282.266 270.657 283.636 268.868 283.636C267.376 283.636 266.19 282.678 266.055 281.364H264.35C264.457 283.58 266.368 285.199 268.868 285.199ZM281.32 285.199C284.26 285.234 286.178 283.018 286.178 280.312C286.178 277.5 284.097 275.483 281.604 275.483C280.105 275.483 278.82 276.214 278.024 277.415H277.911C277.918 273.871 279.295 271.818 281.547 271.818C283.081 271.818 284.004 272.784 284.331 274.091H286.064C285.709 271.832 283.99 270.256 281.547 270.256C278.273 270.256 276.263 273.153 276.263 278.295C276.263 283.672 278.933 285.17 281.32 285.199ZM281.32 283.636C279.494 283.636 278.159 282.081 278.166 280.341C278.173 278.601 279.572 277.045 281.376 277.045C283.159 277.045 284.473 278.509 284.473 280.312C284.473 282.159 283.102 283.636 281.32 283.636Z" fill="white"/>
<g filter="url(#filter1_d_49_3)">
<path d="M432.042 301.084C452.499 301.084 469.084 284.5 469.084 264.042C469.084 243.584 452.499 227 432.042 227C411.584 227 395 243.584 395 264.042C395 284.5 411.584 301.084 432.042 301.084Z" fill="#F44E77"/>
<path d="M484.959 301.084C505.417 301.084 522.001 284.5 522.001 264.042C522.001 243.584 505.417 227 484.959 227C464.501 227 447.917 243.584 447.917 264.042C447.917 284.5 464.501 301.084 484.959 301.084Z" fill="#FFE924" fill-opacity="0.62"/>
</g>
</g>
</g>
<defs>
<filter id="filter0_dd_49_3" x="0" y="0" width="720" height="522" filterUnits="userSpaceOnUse" color-interpolation-filters="sRGB">
<feFlood flood-opacity="0" result="BackgroundImageFix"/>
<feColorMatrix in="SourceAlpha" type="matrix" values="0 0 0 0 0 0 0 0 0 0 0 0 0 0 0 0 0 0 127 0" result="hardAlpha"/>
<feOffset dx="64" dy="60"/>
<feGaussianBlur stdDeviation="20"/>
<feColorMatrix type="matrix" values="0 0 0 0 0.223529 0 0 0 0 0.235294 0 0 0 0 0.435294 0 0 0 0.29 0"/>
<feBlend mode="normal" in2="BackgroundImageFix" result="effect1_dropShadow_49_3"/>
<feColorMatrix in="SourceAlpha" type="matrix" values="0 0 0 0 0 0 0 0 0 0 0 0 0 0 0 0 0 0 127 0" result="hardAlpha"/>
<feOffset dx="49" dy="69"/>
<feGaussianBlur stdDeviation="63.5"/>
<feColorMatrix type="matrix" values="0 0 0 0 0.956863 0 0 0 0 0.305882 0 0 0 0 0.466667 0 0 0 0.12 0"/>
<feBlend mode="normal" in2="effect1_dropShadow_49_3" result="effect2_dropShadow_49_3"/>
<feBlend mode="normal" in="SourceGraphic" in2="effect2_dropShadow_49_3" result="shape"/>
</filter>
<filter id="filter1_d_49_3" x="395" y="227" width="153" height="106.083" filterUnits="userSpaceOnUse" color-interpolation-filters="sRGB">
<feFlood flood-opacity="0" result="BackgroundImageFix"/>
<feColorMatrix in="SourceAlpha" type="matrix" values="0 0 0 0 0 0 0 0 0 0 0 0 0 0 0 0 0 0 127 0" result="hardAlpha"/>
<feOffset dx="13" dy="19"/>
<feGaussianBlur stdDeviation="6.5"/>
<feColorMatrix type="matrix" values="0 0 0 0 0 0 0 0 0 0 0 0 0 0 0 0 0 0 0.25 0"/>
<feBlend mode="normal" in2="BackgroundImageFix" result="effect1_dropShadow_49_3"/>
<feBlend mode="normal" in="SourceGraphic" in2="effect1_dropShadow_49_3" result="shape"/>
</filter>
</defs>
</svg>
